<?xml version="1.0" encoding="utf-8"?>
<!-- Generator: Adobe Illustrator 21.0.2, SVG Export Plug-In . SVG Version: 6.00 Build 0)  -->
<svg version="1.1" id="Layer_1" xmlns="http://www.w3.org/2000/svg" xmlns:xlink="http://www.w3.org/1999/xlink" x="0px" y="0px"
	 viewBox="0 0 67.7 58.3" style="enable-background:new 0 0 67.7 58.3;" xml:space="preserve">
<style type="text/css">
	.st0{fill:#576FB5;}
</style>
<path class="st0" d="M40.9,12.1c-3.7-1.4-5.3-2.7-5.3-5.2c0-1.8,1.4-4,5.1-4c2.4,0,4.2,0.8,5.1,1.3l1-2.8C45.5,0.6,43.5,0,40.8,0
	c-5.2,0-8.7,3.1-8.7,7.3c0,3.8,2.7,6.1,7.1,7.6c3.6,1.4,5.1,2.8,5.1,5.3c0,2.7-2.1,4.6-5.6,4.6c-2.4,0-4.7-0.8-6.2-1.7L31.5,26
	c1.4,1,4.3,1.7,6.8,1.7c6.3,0,9.4-3.6,9.4-7.7C47.8,16,45.5,13.8,40.9,12.1L40.9,12.1z M2.3,53.8C1,53.8,0,54.8,0,56
	c0,1.3,1,2.3,2.3,2.3c1.3,0,2.3-1,2.3-2.3C4.5,54.8,3.5,53.8,2.3,53.8z M54.6,16.5c0.8,0.2,1.8,0.2,2.8,0.2c3.4,0,6.4-1,8.2-3
	c1.4-1.4,2.1-3.3,2.1-5.7c0-2.4-0.9-4.3-2.3-5.6c-1.6-1.4-4.1-2.2-7.5-2.2c-2.8,0-5,0.3-6.6,0.5v26.5h3.5V16.5L54.6,16.5z
	 M54.6,13.7V3.2C55.2,3.1,56.4,3,57.9,3c3.8,0,6.3,1.7,6.3,5.3c0,3.7-2.6,5.7-6.7,5.7C56.3,14,55.4,13.9,54.6,13.7L54.6,13.7z
	 M25.1,51.8L10.3,31.1H7.1v26.2h3.2V36.6l14.8,20.7h3.2V31.1h-3.2V51.8z M49.1,33.8h7.6v23.5h3.2V33.8h7.6v-2.7H49.1V33.8L49.1,33.8
	z M31.9,57.3h14v-2.7H35.2v-9.2h9.7v-2.7h-9.7v-8.9H46v-2.7h-14V57.3L31.9,57.3z M16.2,0.4L7.1,27.3h3.6l2.8-8.4v0H23l2.9,8.4h3.7
	L20.4,0.4H16.2z M14.2,16.1l2.6-7.8c0.5-1.6,1-3.3,1.4-4.9h0.1c0.4,1.5,0.8,3.2,1.4,4.9l2.6,7.7H14.2z"/>
</svg>
