<svg width="85.72629394531249px" height="83.62248535156249px" xmlns="http://www.w3.org/2000/svg" viewBox="207.13685302734376 33.188757324218756 85.72629394531249 83.62248535156249" style="background: rgba(0, 0, 0, 0);" preserveAspectRatio="xMidYMid"><defs><filter id="editing-jagged" x="-100%" y="-100%" width="300%" height="300%"><feTurbulence result="turb" baseFrequency="0.11" numOctaves="1" seed="1"></feTurbulence><feDisplacementMap in="SourceGraphic" in2="turb" scale="8"></feDisplacementMap></filter></defs><g filter="url(#editing-jagged)"><g transform="translate(226.62968818098307, 89)"><path d="M16.28-18.48L16.28-18.48L16.28-18.48Q16.88-19.68 16.88-20.80L16.88-20.80L16.88-20.80Q16.88-21.92 16.76-22.54L16.76-22.54L16.76-22.54Q16.64-23.16 16.36-23.64L16.36-23.64L16.36-23.64Q15.76-24.68 14.56-24.68L14.56-24.68L14.56-24.68Q13.08-24.68 11.88-23.60L11.88-23.60L11.88-23.60Q10.60-22.48 10.60-20.72L10.60-20.72L10.60-20.72Q10.60-19.60 11.38-18.74L11.38-18.74L11.38-18.74Q12.16-17.88 13.36-17.08L13.36-17.08L13.36-17.08Q14.56-16.28 15.92-15.48L15.92-15.48L15.92-15.48Q17.28-14.68 18.48-13.72L18.48-13.72L18.48-13.72Q21.24-11.52 21.24-8.56L21.24-8.56L21.24-8.56Q21.24-6.56 20.18-4.86L20.18-4.86L20.18-4.86Q19.12-3.16 17.36-1.92L17.36-1.92L17.36-1.92Q13.52 0.80 8.44 0.80L8.44 0.80L8.44 0.80Q4.32 0.80 2.20-0.54L2.20-0.54L2.20-0.54Q0.08-1.88 0.08-3.92L0.08-3.92L0.08-3.92Q0.08-7.56 2.92-8.48L2.92-8.48L2.92-8.48Q3.72-8.76 4.94-8.76L4.94-8.76L4.94-8.76Q6.16-8.76 7.56-8.24L7.56-8.24L7.56-8.24Q6.92-6.60 6.92-5.12L6.92-5.12L6.92-5.12Q6.92-1.92 9.20-1.92L9.20-1.92L9.20-1.92Q10.68-1.92 11.90-3L11.90-3L11.90-3Q13.12-4.08 13.12-5.30L13.12-5.30L13.12-5.30Q13.12-6.52 12.34-7.40L12.34-7.40L12.34-7.40Q11.56-8.28 10.40-8.98L10.40-8.98L10.40-8.98Q9.24-9.68 7.90-10.36L7.90-10.36L7.90-10.36Q6.56-11.04 5.40-12L5.40-12L5.40-12Q2.68-14.20 2.68-17.72L2.68-17.72L2.68-17.72Q2.68-20 3.80-21.78L3.80-21.78L3.80-21.78Q4.92-23.56 6.72-24.76L6.72-24.76L6.72-24.76Q10.32-27.20 14.74-27.20L14.74-27.20L14.74-27.20Q19.16-27.20 21.30-25.88L21.30-25.88L21.30-25.88Q23.44-24.56 23.44-22.32L23.44-22.32L23.44-22.32Q23.44-20.36 21.92-19.12L21.92-19.12L21.92-19.12Q20.60-18.08 19-18.08L19-18.08L19-18.08Q17.40-18.08 16.28-18.48ZM32.74 0.10L32.74 0.10L32.74 0.10Q30.60-0.28 29.48-0.44L29.48-0.44L29.48-0.44Q28.36-0.60 27.18-0.60L27.18-0.60L27.18-0.60Q26-0.60 25.40 0L25.40 0L25.40 0Q24.48-0.68 24-2.84L24-2.84L24-2.84Q23.84-3.44 23.84-4.44L23.84-4.44L23.84-4.44Q23.84-6.60 26.32-8.72L26.32-8.72L38.80-18.96L38.80-18.96Q33.64-19.80 31.56-19.80L31.56-19.80L31.56-19.80Q29.48-19.80 27.56-18.88L27.56-18.88L27.56-18.88Q26.48-20.64 26.48-22.68L26.48-22.68L26.48-22.68Q26.48-24.72 27.98-25.76L27.98-25.76L27.98-25.76Q29.48-26.80 32-26.80L32-26.80L32-26.80Q33.12-26.80 34.32-26.64L34.32-26.64L34.32-26.64Q35.52-26.48 36.72-26.32L36.72-26.32L39.08-25.96L39.08-25.96Q40.24-25.80 41.74-25.80L41.74-25.80L41.74-25.80Q43.24-25.80 44.92-26.20L44.92-26.20L44.92-26.20Q46.52-24.80 46.52-22.48L46.52-22.48L46.52-22.48Q46.52-19.68 44.60-18.16L44.60-18.16L31-7.28L31-7.28Q33.92-6.48 38.76-6.48L38.76-6.48L38.76-6.48Q41.16-6.48 42.68-7.68L42.68-7.68L42.68-7.68Q43.36-6.80 43.54-6.06L43.54-6.06L43.54-6.06Q43.72-5.32 43.72-4.26L43.72-4.26L43.72-4.26Q43.72-3.20 43.36-2.34L43.36-2.34L43.36-2.34Q43-1.48 42.24-0.84L42.24-0.84L42.24-0.84Q40.72 0.48 37.36 0.48L37.36 0.48L37.36 0.48Q34.88 0.48 32.74 0.10Z" fill="#444"></path></g></g><style>text {
  font-size: 64px;
  font-family: Arial Black;
  dominant-baseline: central;
  text-anchor: middle;
}</style></svg>